<svg id="visual" viewBox="0 0 1920 1800" width="1920" height="1800" xmlns="http://www.w3.org/2000/svg" xmlns:xlink="http://www.w3.org/1999/xlink" version="1.1"><rect x="0" y="0" width="1920" height="1800" fill="#deccb1"></rect><defs><linearGradient id="grad1_0" x1="6.3%" y1="0%" x2="100%" y2="100%"><stop offset="28.666666666666668%" stop-color="#009473" stop-opacity="1"></stop><stop offset="71.33333333333333%" stop-color="#009473" stop-opacity="1"></stop></linearGradient></defs><defs><linearGradient id="grad1_1" x1="6.3%" y1="0%" x2="100%" y2="100%"><stop offset="28.666666666666668%" stop-color="#009473" stop-opacity="1"></stop><stop offset="71.33333333333333%" stop-color="#4a9c71" stop-opacity="1"></stop></linearGradient></defs><defs><linearGradient id="grad1_2" x1="6.3%" y1="0%" x2="100%" y2="100%"><stop offset="28.666666666666668%" stop-color="#6ea472" stop-opacity="1"></stop><stop offset="71.33333333333333%" stop-color="#4a9c71" stop-opacity="1"></stop></linearGradient></defs><defs><linearGradient id="grad1_3" x1="6.3%" y1="0%" x2="100%" y2="100%"><stop offset="28.666666666666668%" stop-color="#6ea472" stop-opacity="1"></stop><stop offset="71.33333333333333%" stop-color="#8bab78" stop-opacity="1"></stop></linearGradient></defs><defs><linearGradient id="grad1_4" x1="6.3%" y1="0%" x2="100%" y2="100%"><stop offset="28.666666666666668%" stop-color="#a5b381" stop-opacity="1"></stop><stop offset="71.33333333333333%" stop-color="#8bab78" stop-opacity="1"></stop></linearGradient></defs><defs><linearGradient id="grad1_5" x1="6.3%" y1="0%" x2="100%" y2="100%"><stop offset="28.666666666666668%" stop-color="#a5b381" stop-opacity="1"></stop><stop offset="71.33333333333333%" stop-color="#bbbb8f" stop-opacity="1"></stop></linearGradient></defs><defs><linearGradient id="grad1_6" x1="6.3%" y1="0%" x2="100%" y2="100%"><stop offset="28.666666666666668%" stop-color="#cec39f" stop-opacity="1"></stop><stop offset="71.33333333333333%" stop-color="#bbbb8f" stop-opacity="1"></stop></linearGradient></defs><defs><linearGradient id="grad1_7" x1="6.3%" y1="0%" x2="100%" y2="100%"><stop offset="28.666666666666668%" stop-color="#cec39f" stop-opacity="1"></stop><stop offset="71.33333333333333%" stop-color="#deccb1" stop-opacity="1"></stop></linearGradient></defs><defs><linearGradient id="grad2_0" x1="0%" y1="0%" x2="93.8%" y2="100%"><stop offset="28.666666666666668%" stop-color="#009473" stop-opacity="1"></stop><stop offset="71.33333333333333%" stop-color="#009473" stop-opacity="1"></stop></linearGradient></defs><defs><linearGradient id="grad2_1" x1="0%" y1="0%" x2="93.8%" y2="100%"><stop offset="28.666666666666668%" stop-color="#4a9c71" stop-opacity="1"></stop><stop offset="71.33333333333333%" stop-color="#009473" stop-opacity="1"></stop></linearGradient></defs><defs><linearGradient id="grad2_2" x1="0%" y1="0%" x2="93.8%" y2="100%"><stop offset="28.666666666666668%" stop-color="#4a9c71" stop-opacity="1"></stop><stop offset="71.33333333333333%" stop-color="#6ea472" stop-opacity="1"></stop></linearGradient></defs><defs><linearGradient id="grad2_3" x1="0%" y1="0%" x2="93.8%" y2="100%"><stop offset="28.666666666666668%" stop-color="#8bab78" stop-opacity="1"></stop><stop offset="71.33333333333333%" stop-color="#6ea472" stop-opacity="1"></stop></linearGradient></defs><defs><linearGradient id="grad2_4" x1="0%" y1="0%" x2="93.8%" y2="100%"><stop offset="28.666666666666668%" stop-color="#8bab78" stop-opacity="1"></stop><stop offset="71.33333333333333%" stop-color="#a5b381" stop-opacity="1"></stop></linearGradient></defs><defs><linearGradient id="grad2_5" x1="0%" y1="0%" x2="93.8%" y2="100%"><stop offset="28.666666666666668%" stop-color="#bbbb8f" stop-opacity="1"></stop><stop offset="71.33333333333333%" stop-color="#a5b381" stop-opacity="1"></stop></linearGradient></defs><defs><linearGradient id="grad2_6" x1="0%" y1="0%" x2="93.8%" y2="100%"><stop offset="28.666666666666668%" stop-color="#bbbb8f" stop-opacity="1"></stop><stop offset="71.33333333333333%" stop-color="#cec39f" stop-opacity="1"></stop></linearGradient></defs><defs><linearGradient id="grad2_7" x1="0%" y1="0%" x2="93.8%" y2="100%"><stop offset="28.666666666666668%" stop-color="#deccb1" stop-opacity="1"></stop><stop offset="71.33333333333333%" stop-color="#cec39f" stop-opacity="1"></stop></linearGradient></defs><g transform="translate(1920, 0)"><path d="M0 1146C-193.2 1110.2 -386.4 1074.4 -570.5 988.1C-754.6 901.9 -929.6 765.2 -1025.6 592.2C-1121.7 419.1 -1138.9 209.5 -1156 0L0 0Z" fill="#d7c7a8"></path><path d="M0 1002.8C-169.1 971.4 -338.1 940.1 -499.2 864.6C-660.3 789.2 -813.4 669.6 -897.4 518.1C-981.5 366.7 -996.5 183.3 -1011.5 0L0 0Z" fill="#c5bf96"></path><path d="M0 859.5C-144.9 832.6 -289.8 805.8 -427.9 741.1C-565.9 676.4 -697.2 573.9 -769.2 444.1C-841.3 314.3 -854.1 157.1 -867 0L0 0Z" fill="#b0b788"></path><path d="M0 716.3C-120.8 693.9 -241.5 671.5 -356.6 617.6C-471.6 563.7 -581 478.3 -641 370.1C-701.1 261.9 -711.8 131 -722.5 0L0 0Z" fill="#98af7c"></path><path d="M0 573C-96.6 555.1 -193.2 537.2 -285.2 494.1C-377.3 451 -464.8 382.6 -512.8 296.1C-560.9 209.5 -569.4 104.8 -578 0L0 0Z" fill="#7da874"></path><path d="M0 429.8C-72.5 416.3 -144.9 402.9 -213.9 370.6C-283 338.2 -348.6 287 -384.6 222.1C-420.6 157.1 -427.1 78.6 -433.5 0L0 0Z" fill="#5da071"></path><path d="M0 286.5C-48.3 277.5 -96.6 268.6 -142.6 247C-188.6 225.5 -232.4 191.3 -256.4 148C-280.4 104.8 -284.7 52.4 -289 0L0 0Z" fill="#329871"></path><path d="M0 143.3C-24.2 138.8 -48.3 134.3 -71.3 123.5C-94.3 112.7 -116.2 95.7 -128.2 74C-140.2 52.4 -142.4 26.2 -144.5 0L0 0Z" fill="#009473"></path></g><g transform="translate(0, 1800)"><path d="M0 -1130C192.9 -1100.9 385.7 -1071.9 570.5 -988.1C755.3 -904.4 931.9 -766 1025.6 -592.2C1119.4 -418.4 1130.2 -209.2 1141 0L0 0Z" fill="#d7c7a8"></path><path d="M0 -988.7C168.8 -963.3 337.5 -937.9 499.2 -864.6C660.9 -791.3 815.4 -670.2 897.4 -518.1C979.5 -366.1 988.9 -183 998.4 0L0 0Z" fill="#c5bf96"></path><path d="M0 -847.5C144.7 -825.7 289.3 -803.9 427.9 -741.1C566.4 -678.3 698.9 -574.5 769.2 -444.1C839.5 -313.8 847.6 -156.9 855.8 0L0 0Z" fill="#b0b788"></path><path d="M0 -706.2C120.5 -688.1 241.1 -669.9 356.6 -617.6C472 -565.2 582.4 -478.7 641 -370.1C699.6 -261.5 706.4 -130.7 713.1 0L0 0Z" fill="#98af7c"></path><path d="M0 -565C96.4 -550.5 192.9 -535.9 285.2 -494.1C377.6 -452.2 466 -383 512.8 -296.1C559.7 -209.2 565.1 -104.6 570.5 0L0 0Z" fill="#7da874"></path><path d="M0 -423.7C72.3 -412.9 144.7 -402 213.9 -370.6C283.2 -339.1 349.5 -287.2 384.6 -222.1C419.8 -156.9 423.8 -78.4 427.9 0L0 0Z" fill="#5da071"></path><path d="M0 -282.5C48.2 -275.2 96.4 -268 142.6 -247C188.8 -226.1 233 -191.5 256.4 -148C279.8 -104.6 282.5 -52.3 285.3 0L0 0Z" fill="#329871"></path><path d="M0 -141.2C24.1 -137.6 48.2 -134 71.3 -123.5C94.4 -113 116.5 -95.7 128.2 -74C139.9 -52.3 141.3 -26.1 142.6 0L0 0Z" fill="#009473"></path></g></svg>