<svg id="visual" viewBox="0 0 1920 1080" width="1920" height="1080" xmlns="http://www.w3.org/2000/svg" xmlns:xlink="http://www.w3.org/1999/xlink" version="1.1"><rect x="0" y="0" width="1920" height="1080" fill="#deccb1"></rect><defs><linearGradient id="grad1_0" x1="43.8%" y1="0%" x2="100%" y2="100%"><stop offset="14.444444444444446%" stop-color="#98af7c" stop-opacity="1"></stop><stop offset="85.55555555555554%" stop-color="#98af7c" stop-opacity="1"></stop></linearGradient></defs><defs><linearGradient id="grad1_1" x1="43.8%" y1="0%" x2="100%" y2="100%"><stop offset="14.444444444444446%" stop-color="#98af7c" stop-opacity="1"></stop><stop offset="85.55555555555554%" stop-color="#a4b381" stop-opacity="1"></stop></linearGradient></defs><defs><linearGradient id="grad1_2" x1="43.8%" y1="0%" x2="100%" y2="100%"><stop offset="14.444444444444446%" stop-color="#b0b787" stop-opacity="1"></stop><stop offset="85.55555555555554%" stop-color="#a4b381" stop-opacity="1"></stop></linearGradient></defs><defs><linearGradient id="grad1_3" x1="43.8%" y1="0%" x2="100%" y2="100%"><stop offset="14.444444444444446%" stop-color="#b0b787" stop-opacity="1"></stop><stop offset="85.55555555555554%" stop-color="#bbba8f" stop-opacity="1"></stop></linearGradient></defs><defs><linearGradient id="grad1_4" x1="43.8%" y1="0%" x2="100%" y2="100%"><stop offset="14.444444444444446%" stop-color="#c5be96" stop-opacity="1"></stop><stop offset="85.55555555555554%" stop-color="#bbba8f" stop-opacity="1"></stop></linearGradient></defs><defs><linearGradient id="grad1_5" x1="43.8%" y1="0%" x2="100%" y2="100%"><stop offset="14.444444444444446%" stop-color="#c5be96" stop-opacity="1"></stop><stop offset="85.55555555555554%" stop-color="#cec39f" stop-opacity="1"></stop></linearGradient></defs><defs><linearGradient id="grad1_6" x1="43.8%" y1="0%" x2="100%" y2="100%"><stop offset="14.444444444444446%" stop-color="#d6c7a8" stop-opacity="1"></stop><stop offset="85.55555555555554%" stop-color="#cec39f" stop-opacity="1"></stop></linearGradient></defs><defs><linearGradient id="grad1_7" x1="43.8%" y1="0%" x2="100%" y2="100%"><stop offset="14.444444444444446%" stop-color="#d6c7a8" stop-opacity="1"></stop><stop offset="85.55555555555554%" stop-color="#deccb1" stop-opacity="1"></stop></linearGradient></defs><defs><linearGradient id="grad2_0" x1="0%" y1="0%" x2="56.3%" y2="100%"><stop offset="14.444444444444446%" stop-color="#98af7c" stop-opacity="1"></stop><stop offset="85.55555555555554%" stop-color="#98af7c" stop-opacity="1"></stop></linearGradient></defs><defs><linearGradient id="grad2_1" x1="0%" y1="0%" x2="56.3%" y2="100%"><stop offset="14.444444444444446%" stop-color="#a4b381" stop-opacity="1"></stop><stop offset="85.55555555555554%" stop-color="#98af7c" stop-opacity="1"></stop></linearGradient></defs><defs><linearGradient id="grad2_2" x1="0%" y1="0%" x2="56.3%" y2="100%"><stop offset="14.444444444444446%" stop-color="#a4b381" stop-opacity="1"></stop><stop offset="85.55555555555554%" stop-color="#b0b787" stop-opacity="1"></stop></linearGradient></defs><defs><linearGradient id="grad2_3" x1="0%" y1="0%" x2="56.3%" y2="100%"><stop offset="14.444444444444446%" stop-color="#bbba8f" stop-opacity="1"></stop><stop offset="85.55555555555554%" stop-color="#b0b787" stop-opacity="1"></stop></linearGradient></defs><defs><linearGradient id="grad2_4" x1="0%" y1="0%" x2="56.3%" y2="100%"><stop offset="14.444444444444446%" stop-color="#bbba8f" stop-opacity="1"></stop><stop offset="85.55555555555554%" stop-color="#c5be96" stop-opacity="1"></stop></linearGradient></defs><defs><linearGradient id="grad2_5" x1="0%" y1="0%" x2="56.3%" y2="100%"><stop offset="14.444444444444446%" stop-color="#cec39f" stop-opacity="1"></stop><stop offset="85.55555555555554%" stop-color="#c5be96" stop-opacity="1"></stop></linearGradient></defs><defs><linearGradient id="grad2_6" x1="0%" y1="0%" x2="56.3%" y2="100%"><stop offset="14.444444444444446%" stop-color="#cec39f" stop-opacity="1"></stop><stop offset="85.55555555555554%" stop-color="#d6c7a8" stop-opacity="1"></stop></linearGradient></defs><defs><linearGradient id="grad2_7" x1="0%" y1="0%" x2="56.3%" y2="100%"><stop offset="14.444444444444446%" stop-color="#deccb1" stop-opacity="1"></stop><stop offset="85.55555555555554%" stop-color="#d6c7a8" stop-opacity="1"></stop></linearGradient></defs><g transform="translate(1920, 0)"><path d="M0 860C-144.1 827.7 -288.3 795.3 -420 727.5C-551.7 659.6 -671.1 556.2 -743 429C-815 301.8 -839.5 150.9 -864 0L0 0Z" fill="#dacaac"></path><path d="M0 752.5C-126.1 724.2 -252.2 695.9 -367.5 636.5C-482.8 577.1 -587.2 486.6 -650.2 375.4C-713.1 264.1 -734.6 132.1 -756 0L0 0Z" fill="#d2c5a3"></path><path d="M0 645C-108.1 620.8 -216.2 596.5 -315 545.6C-413.8 494.7 -503.3 417.1 -557.3 321.8C-611.2 226.4 -629.6 113.2 -648 0L0 0Z" fill="#cac19a"></path><path d="M0 537.5C-90.1 517.3 -180.2 497.1 -262.5 454.7C-344.8 412.2 -419.4 347.6 -464.4 268.1C-509.4 188.6 -524.7 94.3 -540 0L0 0Z" fill="#c0bc92"></path><path d="M0 430C-72.1 413.8 -144.1 397.7 -210 363.7C-275.9 329.8 -335.6 278.1 -371.5 214.5C-407.5 150.9 -419.7 75.5 -432 0L0 0Z" fill="#b6b88b"></path><path d="M0 322.5C-54 310.4 -108.1 298.3 -157.5 272.8C-206.9 247.3 -251.7 208.6 -278.6 160.9C-305.6 113.2 -314.8 56.6 -324 0L0 0Z" fill="#aab584"></path><path d="M0 215C-36 206.9 -72.1 198.8 -105 181.9C-137.9 164.9 -167.8 139 -185.8 107.3C-203.7 75.5 -209.9 37.7 -216 0L0 0Z" fill="#9eb17f"></path><path d="M0 107.5C-18 103.5 -36 99.4 -52.5 90.9C-69 82.4 -83.9 69.5 -92.9 53.6C-101.9 37.7 -104.9 18.9 -108 0L0 0Z" fill="#98af7c"></path></g><g transform="translate(0, 1080)"><path d="M0 -864C144.1 -826.5 288.2 -789 414 -717.1C539.8 -645.1 647.4 -538.8 716.2 -413.5C785 -288.2 815 -144.1 845 0L0 0Z" fill="#dacaac"></path><path d="M0 -756C126.1 -723.2 252.1 -690.4 362.2 -627.4C472.4 -564.5 566.5 -471.4 626.7 -361.8C686.9 -252.2 713.1 -126.1 739.4 0L0 0Z" fill="#d2c5a3"></path><path d="M0 -648C108.1 -619.9 216.1 -591.8 310.5 -537.8C404.9 -483.8 485.6 -404.1 537.2 -310.1C588.7 -216.2 611.2 -108.1 633.8 0L0 0Z" fill="#cac19a"></path><path d="M0 -540C90.1 -516.6 180.1 -493.1 258.7 -448.2C337.4 -403.2 404.6 -336.7 447.6 -258.4C490.6 -180.2 509.4 -90.1 528.1 0L0 0Z" fill="#c0bc92"></path><path d="M0 -432C72 -413.3 144.1 -394.5 207 -358.5C269.9 -322.6 323.7 -269.4 358.1 -206.8C392.5 -144.1 407.5 -72.1 422.5 0L0 0Z" fill="#b6b88b"></path><path d="M0 -324C54 -309.9 108.1 -295.9 155.2 -268.9C202.4 -241.9 242.8 -202 268.6 -155.1C294.4 -108.1 305.6 -54 316.9 0L0 0Z" fill="#aab584"></path><path d="M0 -216C36 -206.6 72 -197.3 103.5 -179.3C135 -161.3 161.9 -134.7 179.1 -103.4C196.2 -72.1 203.7 -36 211.3 0L0 0Z" fill="#9eb17f"></path><path d="M0 -108C18 -103.3 36 -98.6 51.7 -89.6C67.5 -80.6 80.9 -67.3 89.5 -51.7C98.1 -36 101.9 -18 105.6 0L0 0Z" fill="#98af7c"></path></g></svg>