<?xml version="1.0" encoding="iso-8859-1"?>
<!-- Uploaded to: SVG Repo, www.svgrepo.com, Generator: SVG Repo Mixer Tools -->
<svg fill="#000000" height="800px" width="800px" version="1.1" id="Capa_1" xmlns="http://www.w3.org/2000/svg" xmlns:xlink="http://www.w3.org/1999/xlink" 
	 viewBox="0 0 611.998 611.998" xml:space="preserve">
<g>
	<path d="M435.767,586.709l15.912-46.955h-39.933l18.242-139.428h18.633v-72.333H323.163V203.409
		c6.399-0.869,12.684-2.5,18.781-4.899c20.117-7.916,35.948-23.192,44.576-43.017s9.02-41.821,1.102-61.938l-29.638-75.318
		l-19.547,7.692L312.504,0l-26.541,26.54l-19.456-7.522l-25.369,65.62c-11.41,21.077-12.931,45.877-4.15,68.191
		c10.465,26.597,33.533,45.154,60.882,50.034v32.767c-4.84-5.309-10.23-10.117-16.087-14.261
		c-16.672-11.793-37.149-18.295-57.662-18.309l-12.664-0.009l0.009,12.664c0.007,11.8,2.041,23.337,6.045,34.291
		c6.897,18.878,19.763,35.69,36.232,47.338c12.991,9.19,28.297,15.148,44.128,17.346v13.3H175.763v72.335h18.824l17.989,139.428
		h-39.872l15.912,46.955H95.539v25.291h420.92v-25.291h-80.692V586.709z M268.348,276.698c-12.313-8.709-21.931-21.27-27.082-35.37
		c-1.384-3.79-2.453-7.676-3.201-11.636c10.453,2.003,20.473,6.213,29.114,12.326c12.311,8.709,21.929,21.27,27.08,35.37
		c1.386,3.79,2.453,7.678,3.203,11.636C287.009,287.019,276.99,282.811,268.348,276.698z M260.522,143.568
		c-6.113-15.536-4.961-32.828,3.161-47.443l0.425-0.766l16.868-43.631l11.226,4.341l20.302-20.302l19.767,19.767l11.439-4.502
		l20.376,51.782c5.443,13.831,5.174,28.953-0.759,42.583c-5.931,13.628-16.817,24.132-30.648,29.576
		c-6.549,2.576-13.397,3.882-20.356,3.882c-0.002,0-0.002,0-0.002,0C289.291,178.857,268.958,165.004,260.522,143.568z
		 M201.054,353.284h222.273v21.752H201.054V353.284z M220.09,400.328h184.394l-18.242,139.428h-148.16L220.09,400.328z
		 M207.979,565.047h208.426l-7.342,21.664H215.321L207.979,565.047z"/>
</g>
</svg>