<svg id="visual" viewBox="0 0 1200 400" width="1200" height="400" xmlns="http://www.w3.org/2000/svg" xmlns:xlink="http://www.w3.org/1999/xlink" version="1.1"><rect x="0" y="0" width="1200" height="400" fill="#7da874"></rect><defs><linearGradient id="grad1_0" x1="66.7%" y1="100%" x2="100%" y2="0%"><stop offset="-10%" stop-color="#7da874" stop-opacity="1"></stop><stop offset="110%" stop-color="#7da874" stop-opacity="1"></stop></linearGradient></defs><defs><linearGradient id="grad2_0" x1="0%" y1="100%" x2="33.3%" y2="0%"><stop offset="-10%" stop-color="#7da874" stop-opacity="1"></stop><stop offset="110%" stop-color="#7da874" stop-opacity="1"></stop></linearGradient></defs><g transform="translate(1200, 400)"><path d="M-291 0C-289 -59.4 -287.1 -118.7 -258.1 -149C-229.1 -179.3 -173 -180.4 -125.5 -217.4C-78 -254.4 -39 -327.2 0 -400L0 0Z" fill="#63925a"></path></g><g transform="translate(0, 0)"><path d="M400 0C342.2 49.6 284.3 99.2 245.1 141.5C205.9 183.8 185.2 218.8 147.5 255.5C109.8 292.2 54.9 330.6 0 369L0 0Z" fill="#63925a"></path></g></svg>