<svg id="visual" viewBox="0 0 1920 1800" width="1920" height="1800" xmlns="http://www.w3.org/2000/svg" xmlns:xlink="http://www.w3.org/1999/xlink" version="1.1"><path d="M0 1531L64 1537C128 1543 256 1555 384 1558.2C512 1561.3 640 1555.7 768 1540.7C896 1525.7 1024 1501.3 1152 1489C1280 1476.7 1408 1476.3 1536 1491.8C1664 1507.3 1792 1538.7 1856 1554.3L1920 1570L1920 1801L1856 1801C1792 1801 1664 1801 1536 1801C1408 1801 1280 1801 1152 1801C1024 1801 896 1801 768 1801C640 1801 512 1801 384 1801C256 1801 128 1801 64 1801L0 1801Z" fill="#88B183" stroke-linecap="round" stroke-linejoin="miter"></path></svg>